<?xml version="1.0" encoding="utf-8"?>
<!-- Generator: Adobe Illustrator 26.1.0, SVG Export Plug-In . SVG Version: 6.00 Build 0)  -->
<svg version="1.1" id="Layer_1" xmlns="http://www.w3.org/2000/svg" xmlns:xlink="http://www.w3.org/1999/xlink" x="0px" y="0px"
	 viewBox="0 0 1389 1220" style="enable-background:new 0 0 1389 1220;" xml:space="preserve">
<style type="text/css">
	.st0{clip-path:url(#SVGID_00000146468353870457535920000010824133706848844219_);}
	.st1{fill:#247C3F;}
</style>
<g>
	<g>
		<defs>
			<rect id="SVGID_1_" width="1389" height="1219"/>
		</defs>
		<clipPath id="SVGID_00000116944849142129145790000017497292552086194844_">
			<use xlink:href="#SVGID_1_"  style="overflow:visible;"/>
		</clipPath>
		<g style="clip-path:url(#SVGID_00000116944849142129145790000017497292552086194844_);">
			<g>
				<path class="st1" d="M206.1,506.3c8.2-4.1,12.1-6.8,20.5-9.4c-1.3-3.6-1.9-4.5-4.1-8.3c-2.6,0.2-8.1,2.4-10.6,2.9
					c-6.2,2.2-19.2,8.2-24.2,11.3c-6.4,4.5-15.7,12.3-16,20.8c-0.3,6.8,3.2,9.3,7,13.8c2,1.9,6.5,4.8,13.9,7.8
					c19.3,6.4,8.1,2.5,19.3,6.4c1.6-5.1,4.8-10.1,5.5-14.2c-20.8-7.5-27.3-9.6-28.2-11.9C185.7,520,194.1,513.1,206.1,506.3z"/>
				<path class="st1" d="M334.3,616.1l13.7,13.6l-88.3,30l-18-18.1C298.2,627,270.4,634.5,334.3,616.1z"/>
				<path class="st1" d="M231.1,648.2l13.7,13.6L157.5,696L137,677C190.5,660.4,167.2,666.5,231.1,648.2z"/>
				<path class="st1" d="M227.3,555.8l0.3-12.4l71.3,11.7l-0.8,15.9C227.3,556,280.5,567.6,227.3,555.8z"/>
				<path class="st1" d="M314.3,454l5.9,8.3c-51.2,20-21.1,8.3-41.7,16.4c-5.4,2.1-14.2,5.6-28.8,11.3l-8.4-10.8
					C310.4,455.3,245.3,477.8,314.3,454z"/>
				<path class="st1" d="M397.6,421l6.9,7l-67,26.7l-3.7-10.3L397.6,421z"/>
				<path class="st1" d="M316.3,557.9c0.7,4.9-2.6,12.7-1.7,17.7c17.5,3.3,22.4,2.5,34.1,7.1c10,3.5,19.3,11.8,14.5,15.8
					c-9.3,6.7-7.6,4.8-18,11.8c1.5,4.2,9.7,9.7,12.5,13.2c7.2-1.5,13.2-7.1,19.8-10.4c8.6-6.3,10.1-11.7,11.4-18.2
					c0.3-8.2-2.4-17.5-15.3-23.4C356.9,563.8,340.4,559.9,316.3,557.9z"/>
				<path class="st1" d="M702.5,591.5c-20.4-55.6-21.6-57.9-31.1-61.9c-4.9-2-13.3-2.3-19.2-0.5c-7.9,2.4-14.1,11.1-14.1,20.1
					c0,3.5,25.5,70.2,33.9,88.6c0.9,2.3,5.2,12.6,9.3,22.9c4.3,10.3,9.1,20.8,10.9,23.2c10.1,13,33.5,13.1,44.7,0.3
					c4-4.4,14.3-29.7,29-71.2c1.7-4.8,3.5-8.8,3.9-8.8c0.7,0,2.4,4,14,34.2c12.9,33.4,16.8,41.7,21.1,46.8c5.6,6.6,13.1,9,25.1,8.2
					c9.3-0.5,15.5-3.9,20.6-11.1c1.5-2.1,13.9-31.5,27.6-65.4c21.9-54,25.1-62.7,25.1-69c0-15.8-14.8-24.1-31.2-17.6
					c-4.8,2-13.3,11.1-13.3,14.5c0,0.5-3.6,10.2-7.9,21.4c-4.3,11.3-9.3,24.5-11.2,29.7c-9.7,26.4-12.7,33.6-13.6,33.9
					c-0.7,0.1-5.2-11-10.3-24.7s-12.7-33.9-16.7-44.9c-8.9-23.9-10.8-27.3-17.1-30c-10.1-4-20.8-2-27.2,5.5
					c-4.3,5-5.5,7.9-21.8,53.6c-7.9,21.7-14.5,39.9-14.9,40.6C717.4,630.7,712.4,618.5,702.5,591.5z"/>
				<path class="st1" d="M1074.1,628.6c-0.5-42.2-0.8-50.3-2.7-57.6c-6.5-23.9-21-36.6-48.4-42.1c-3.9-0.8-14.7-1.5-23.9-1.3
					c-14,0-19.5,0.7-32,3.8c-17.4,4.3-28.7,9.6-32.6,14.9c-3.6,4.8-3.6,17-0.1,22.4c5.3,8,13.6,9.1,26.3,3.5
					c8-3.5,28.8-7.9,37.4-7.9c12.7,0,23.1,5,25.9,12.2c1,3.4,1.7,6.8,2.1,10.3c0.7,5.5,0.5,7.4-0.9,7.9c-0.9,0.4-9.2,0.8-18.3,0.9
					c-42.7,0.5-64.2,5.8-76.3,18.5c-17.9,19-11.7,53.5,12.8,69.7c12.4,8.2,19.1,9.9,39,9.9c16.5,0,17.6-0.1,25-3.9
					c5.1-2.7,9.7-6.1,13.6-10.2c3.2-3.4,6-6.3,6.4-6.3s0.9,2.3,1.5,5.1c2.3,14.2,24.3,20.5,37.2,10.5
					C1071.5,684.7,1074.2,664.6,1074.1,628.6z M1025.3,631.2c-0.8,14-6.5,23.5-18,29.1c-11.3,5.8-27.9,4.1-33.9-3.3
					c-3.5-4.4-5.8-11.4-5.1-15.3c1.6-8.6,7.3-12.9,19.6-15c3.8-0.7,13.9-1.1,22.5-0.8l15.2,0.1L1025.3,631.2z"/>
				<path class="st1" d="M1207.4,547.4c-0.7-11.3-2.7-15.8-8.3-18.4c-14.3-6.6-43.1,3.8-53.5,19.3l-3.6,5.4l-1.3-6.6
					c-2.8-13.5-9.6-18.8-24-18.8c-10.7,0-16,2.7-21.4,10.2c-4.3,6.3-4.7,14.2-4.1,80.4c0.4,57.5,0.5,59.9,3.2,64.3
					c8.7,14.7,38,15,45.6,0.3c2.3-4.3,2.5-8.8,3.1-45.6c0.5-39.3,0.7-41,3.6-47c5.7-11.5,15.9-17,36.6-19.3
					c11.9-1.5,17.5-4,21.8-10.6C1207.6,557.2,1207.8,555.4,1207.4,547.4z"/>
				<path class="st1" d="M1274.3,535c-2.1-2.6-4.5-4.7-7.2-6.7c-3.6-2.4-6.3-2.9-14-2.9c-10.9,0-16.2,2.7-21.5,10.3l-3.1,4.4v67.5
					c0,72.5-0.1,71.1,6.9,77.6c13.2,12.1,36.7,7.1,41-9c0.9-3.3,1.3-27.7,1.1-71.3v-0.6C1277.2,540.2,1277.2,538.8,1274.3,535z"/>
				<path class="st1" d="M1249.7,484.7c17.5-0.1,31.8-3.4,43.5-10.1s20.7-16.9,27.6-30.6c3-6.3,5.2-12.9,6.7-19.7
					c0.6-2.8,1-5.6,1.2-8.5c0.1-0.9,0-1.9-0.1-2.8c0-0.3-0.1-0.5-0.2-0.8V412c-0.2,0-0.3-0.1-0.5-0.2c-1.1-0.2-2.2-0.4-3.3-0.4
					c-3.1-0.2-7.8-0.3-14.7-0.2c-14.5,0.2-25.9,0.7-34.7,1.5c-8.8,0.8-14.9,2-19.1,3.5l-0.4,0.2c-5.1,2.2-9.7,5.2-13.8,8.9
					c-4.7,4-8.7,8.7-10.6,12.5l-0.4,0.8c-3.8,7.8-6.5,19-6.3,26.3c0,3.4,0.3,6.9,1,10.3c0.2,0.8,0.5,1.6,0.8,2.3
					c0.3,0.4,0.4,0.4,0.4,0.4c0.3,0,0.6,0,0.9-0.2c0.9-0.5,1.7-1,2.5-1.7c2.9-2.6,5.6-5.3,8-8.4c5.7-6.8,12-13,18.8-18.7
					c4.3-3.5,12-8.3,18.6-11.9c2.9-1.7,5.9-3.2,9-4.4c1.2-0.5,2.3-0.9,3.2-1.2c0.5-0.1,0.9-0.2,1.4-0.2c0.7,0,1.5,0.2,2,0.7
					c0.5,0.6,0.7,1.4,0.5,2.1c-0.1,0.3-0.2,0.6-0.4,0.8c-0.2,0.3-0.5,0.6-0.8,0.8c-0.8,0.7-1.6,1.3-2.5,1.9c-1.8,1.3-4.2,2.8-7,4.4
					l-1.2,0.7c-8.5,5-15.5,10.6-26.8,22.2l-1.6,1.6c-3.7,3.6-7,7.1-9.4,9.9c-1.4,1.6-2.5,2.9-3.3,3.8c-0.4,0.5-0.6,0.9-0.8,1.1
					c0,0.7,0,1.5,0.2,2.2c0.1,0.3,0.4,0.6,0.7,0.7c1.1,0.4,2.3,0.6,3.5,0.6C1244,484.6,1246.4,484.7,1249.7,484.7z"/>
				<path class="st1" d="M192.6,563.7c-69.1-17.9-44.8-55.2-12-72.6c38.7-19.3,57.1-26.4,112.6-45.5c31.9-10.3,62.5-21.7,90-28.8
					c22.8-7-36.8-29.7-51-34.4c-81.1-27.3-181.3,12.5-220.9,87.9c-26.6,48.1-30.5,108.3-8.6,158.9c12.3,27.4,16,23.8,41,16.1
					c52.6-18.1,111.4-33.8,165.4-47.5c13.2-8.4-28.8-13.7-63.8-21.8C225.2,571.8,208.9,567.8,192.6,563.7z"/>
				<path class="st1" d="M413.1,434.6c-12.5,7.5-29.4,14.2-42.8,20.2c-29.5,13.5-56,24.5-85.8,37.2c-12.9,5.5-26.1,10.1-39,15.7
					c-33.7,13.2,3.6,17.7,24.7,22.4c16.9,3.1,24.3,3.5,35.3,5.7c36.4,6.5,55,8.9,81.1,22.4c10.2,7.2,18.9,17,21.1,29.6
					c2.3,13.8-6.1,26.6-16,35.6c-17.9,18.6-50.1,32.1-88.6,45.8c-19.2,7.6,0.3,0.5-72.7,23.7c-55.8,17.3-0.3,1.2-56.2,17.3
					C204.6,730.3,240.4,741,277,741c102.1,0,185-81.8,185-182.8C461.9,512.5,444.5,468.3,413.1,434.6z"/>
				<path class="st1" d="M107.4,659c-2.7-8.6-10.9-17.4-19.5-21.6c-16.1-7.4-35.8-3.2-45.9,10c-11.7,15.1-10.3,37.7,3.2,52.1
					c2.1,2.3,8.4,9.1,14.3,15.5c5.7,6.3,11.2,11.4,12,11.4c1.7,0,21.5-15.2,33.9-35.4C109.8,684.9,110.8,669.5,107.4,659z"/>
				<path class="st1" d="M424.8,407.4c3.3-5.2,2-12.3-3.3-17.1c-2.9-2.8-9.9-3.5-14.2-1.6c-5.8,2.7-9.2,10.7-7.1,16.6
					c1.4,3.5,11.3,13.9,13.3,13.9C415.3,419.1,421.7,412.4,424.8,407.4z"/>
				<path class="st1" d="M616.2,627.9c-0.4-42.2-0.7-50.3-2.7-57.6c-6.5-23.9-21-36.6-48.4-42.1c-3.9-0.8-14.7-1.5-23.9-1.3
					c-14,0-19.5,0.7-32,3.8c-17.4,4.3-28.7,9.6-32.6,14.9c-3.6,4.8-3.6,17-0.1,22.4c5.3,8,13.6,9.1,26.3,3.5
					c8-3.5,28.8-7.9,37.4-7.9c12.7,0,23.1,5,25.9,12.2c1,3.4,1.7,6.8,2.1,10.3c0.7,5.5,0.5,7.4-0.9,7.9c-0.9,0.4-9.2,0.8-18.3,0.9
					c-42.7,0.5-64.2,5.8-76.3,18.5c-17.9,19-11.7,53.5,12.8,69.7c12.4,8.2,19.1,9.9,39,9.9c16.5,0,17.6-0.1,25-3.9
					c5.1-2.7,9.7-6.1,13.6-10.2c3.2-3.4,6-6.3,6.4-6.3s0.9,2.3,1.5,5.1c2.3,14.2,24.3,20.5,37.2,10.5
					C613.6,684,616.3,663.9,616.2,627.9z M566.4,630.5c-0.8,14-6.5,23.5-18,29.1c-11.3,5.8-27.9,4.1-33.9-3.3
					c-3.5-4.4-5.8-11.4-5.1-15.3c1.6-8.6,7.3-12.9,19.6-15c3.7-0.7,13.9-1.1,22.4-0.8l15.3,0.1L566.4,630.5z"/>
			</g>
		</g>
	</g>
</g>
</svg>
